<?xml version="1.0" encoding="UTF-8"?>
<!DOCTYPE svg PUBLIC "-//W3C//DTD SVG 1.1//EN" "http://www.w3.org/Graphics/SVG/1.1/DTD/svg11.dtd">
<svg xmlns="http://www.w3.org/2000/svg" version="1.1" width="1817px" height="2181px" style="shape-rendering:geometricPrecision; text-rendering:geometricPrecision; image-rendering:optimizeQuality; fill-rule:evenodd; clip-rule:evenodd" xmlns:xlink="http://www.w3.org/1999/xlink">
<g><path style="opacity:1" fill="#fefefe" d="M 900.5,-0.5 C 901.167,-0.5 901.833,-0.5 902.5,-0.5C 936.53,45.6635 977.863,83.8302 1026.5,114C 1111.52,166.216 1204.02,191.383 1304,189.5C 1406.42,189.677 1507.25,177.177 1606.5,152C 1626.96,146.071 1647.29,139.737 1667.5,133C 1669.82,132.163 1672.15,131.83 1674.5,132C 1658.2,169.427 1642.04,206.927 1626,244.5C 1610.31,293.951 1601.31,344.618 1599,396.5C 1596.08,442.459 1595.08,488.459 1596,534.5C 1598.92,619.836 1621.58,699.503 1664,773.5C 1689.25,815.669 1714.25,858.002 1739,900.5C 1790.36,993.601 1811.69,1093.27 1803,1199.5C 1801.21,1272.27 1788.21,1342.94 1764,1411.5C 1735.35,1484.17 1693.68,1548.17 1639,1603.5C 1585.96,1655.88 1529.12,1703.38 1468.5,1746C 1497.95,1743.31 1521.45,1753.81 1539,1777.5C 1554.97,1807.11 1552.64,1835.11 1532,1861.5C 1504.47,1886.77 1473.97,1890.93 1440.5,1874C 1416.13,1857.76 1405.3,1834.92 1408,1805.5C 1409.23,1797.83 1411.23,1790.5 1414,1783.5C 1373.38,1811.45 1332.21,1838.62 1290.5,1865C 1222.83,1907.33 1155.17,1949.67 1087.5,1992C 1058.08,2010.71 1030.08,2031.38 1003.5,2054C 980.39,2075.43 959.89,2098.93 942,2124.5C 929.574,2143.02 917.407,2161.69 905.5,2180.5C 904.833,2180.5 904.167,2180.5 903.5,2180.5C 863.031,2122.52 815.031,2071.36 759.5,2027C 725.884,2001.19 691.217,1976.86 655.5,1954C 582.764,1908.94 509.764,1864.27 436.5,1820C 334.292,1756.84 243.125,1680 163,1589.5C 121.983,1541.82 86.6494,1490.16 57,1434.5C 25.1576,1373.82 5.99098,1309.48 -0.5,1241.5C -0.5,1218.83 -0.5,1196.17 -0.5,1173.5C 4.14795,1080.24 26.9813,991.577 68,907.5C 92.9036,859.355 118.57,811.689 145,764.5C 197.701,666.348 219.368,561.681 210,450.5C 207.765,379.754 194.765,311.087 171,244.5C 157.422,211.179 141.589,179.012 123.5,148C 143.862,153.227 164.195,158.894 184.5,165C 239.726,178.461 295.726,186.794 352.5,190C 407.121,193.271 461.788,194.271 516.5,193C 592.826,190.001 665.826,173.001 735.5,142C 782.486,120.101 824.32,90.9347 861,54.5C 876.638,37.8719 889.804,19.5385 900.5,-0.5 Z"/></g>
<g><path style="opacity:1" fill="#293785" d="M 901.5,36.5 C 994.976,139.736 1111.64,197.57 1251.5,210C 1362.84,214.545 1472.84,204.545 1581.5,180C 1599.32,175.672 1616.98,170.839 1634.5,165.5C 1635.58,166.365 1635.75,167.365 1635,168.5C 1619.56,198.706 1606.9,230.039 1597,262.5C 1588.3,297.042 1582.3,332.042 1579,367.5C 1574.34,426.074 1572.67,484.741 1574,543.5C 1575.9,576.872 1580.4,609.872 1587.5,642.5C 1196.5,642.667 805.5,642.5 414.5,642C 353.581,601.624 292.747,561.124 232,520.5C 234.009,435.238 223.675,351.571 201,269.5C 192.07,240.313 180.403,212.313 166,185.5C 165.251,184.365 165.417,183.365 166.5,182.5C 228.724,199.08 292.058,208.914 356.5,212C 406.785,215.214 457.118,216.214 507.5,215C 590.797,212.209 670.464,193.875 746.5,160C 802.944,134.031 851.444,97.5309 892,50.5C 895.388,45.9523 898.555,41.2856 901.5,36.5 Z"/></g>
<g><path style="opacity:1" fill="#8481b1" d="M 1422.5,580.5 C 1422.5,487.167 1422.5,393.833 1422.5,300.5C 1076.17,300.5 729.833,300.5 383.5,300.5C 383.5,393.833 383.5,487.167 383.5,580.5C 382.501,487.001 382.167,393.335 382.5,299.5C 729.5,299.5 1076.5,299.5 1423.5,299.5C 1423.83,393.335 1423.5,487.001 1422.5,580.5 Z"/></g>
<g><path style="opacity:1" fill="#fffefe" d="M 1422.5,580.5 C 1076.17,580.5 729.833,580.5 383.5,580.5C 383.5,487.167 383.5,393.833 383.5,300.5C 729.833,300.5 1076.17,300.5 1422.5,300.5C 1422.5,393.833 1422.5,487.167 1422.5,580.5 Z"/></g>
<g><path style="opacity:1" fill="#ee282a" d="M 846.5,432.5 C 890.833,432.5 935.167,432.5 979.5,432.5C 979.823,425.978 979.49,419.645 978.5,413.5C 975.291,399.125 967.291,388.292 954.5,381C 926.23,368.34 897.23,366.34 867.5,375C 847.334,383.51 835.834,398.677 833,420.5C 832.219,461.497 831.719,502.497 831.5,543.5C 809.5,543.5 787.5,543.5 765.5,543.5C 765.333,497.832 765.5,452.165 766,406.5C 773.088,374.834 790.588,350.668 818.5,334C 850.793,317.208 885.126,310.542 921.5,314C 942.038,315.051 961.705,319.718 980.5,328C 1012.98,343.48 1032.14,368.98 1038,404.5C 1038.5,450.832 1038.67,497.165 1038.5,543.5C 1018.5,543.5 998.5,543.5 978.5,543.5C 978.5,521.167 978.5,498.833 978.5,476.5C 934.5,476.5 890.5,476.5 846.5,476.5C 846.5,461.833 846.5,447.167 846.5,432.5 Z"/></g>
<g><path style="opacity:1" fill="#ee282a" d="M 652.5,476.5 C 608.336,475.501 564.003,475.168 519.5,475.5C 519.5,460.833 519.5,446.167 519.5,431.5C 563.833,431.5 608.167,431.5 652.5,431.5C 654.845,405.345 643.845,387.512 619.5,378C 591.566,368.494 563.566,368.16 535.5,377C 514.658,384.998 501.991,399.832 497.5,421.5C 496.501,461.663 496.168,501.997 496.5,542.5C 476.833,542.5 457.167,542.5 437.5,542.5C 437.333,496.499 437.5,450.499 438,404.5C 444.382,367.453 464.882,341.619 499.5,327C 523.972,317.779 549.305,313.613 575.5,314.5C 611.82,312.326 644.82,321.493 674.5,342C 694.634,358.495 706.801,379.661 711,405.5C 711.5,451.165 711.667,496.832 711.5,542.5C 691.833,542.5 672.167,542.5 652.5,542.5C 652.5,520.5 652.5,498.5 652.5,476.5 Z"/></g>
<g><path style="opacity:1" fill="#ee282a" d="M 1085.5,324.5 C 1105.5,324.5 1125.5,324.5 1145.5,324.5C 1145.33,365.168 1145.5,405.835 1146,446.5C 1150.49,462.987 1160.65,474.487 1176.5,481C 1191.62,486.709 1207.29,489.209 1223.5,488.5C 1249.6,490.303 1271.77,481.97 1290,463.5C 1295,456.493 1298.67,448.826 1301,440.5C 1301.5,401.835 1301.67,363.168 1301.5,324.5C 1321.5,324.5 1341.5,324.5 1361.5,324.5C 1361.67,369.501 1361.5,414.501 1361,459.5C 1355.75,496.751 1335.59,522.251 1300.5,536C 1267.11,547.673 1232.78,551.673 1197.5,548C 1163.62,546.161 1134.45,533.661 1110,510.5C 1096.28,494.718 1088.28,476.385 1086,455.5C 1085.5,411.835 1085.33,368.168 1085.5,324.5 Z"/></g>
<g><path style="opacity:1" fill="#f6977d" d="M 978.5,413.5 C 979.49,419.645 979.823,425.978 979.5,432.5C 935.167,432.5 890.833,432.5 846.5,432.5C 890.33,431.501 934.33,431.168 978.5,431.5C 978.5,425.5 978.5,419.5 978.5,413.5 Z"/></g>
<g><path style="opacity:1" fill="#f37359" d="M 519.5,431.5 C 519.5,446.167 519.5,460.833 519.5,475.5C 564.003,475.168 608.336,475.501 652.5,476.5C 607.833,476.5 563.167,476.5 518.5,476.5C 518.171,461.324 518.504,446.324 519.5,431.5 Z"/></g>
<g><path style="opacity:1" fill="#fab69f" d="M 497.5,421.5 C 497.5,462.167 497.5,502.833 497.5,543.5C 477.326,543.83 457.326,543.497 437.5,542.5C 457.167,542.5 476.833,542.5 496.5,542.5C 496.168,501.997 496.501,461.663 497.5,421.5 Z"/></g>
<g><path style="opacity:1" fill="#293785" d="M 229.5,543.5 C 244.599,552.749 259.599,562.249 274.5,572C 721.995,868.582 1169.66,1164.92 1617.5,1461C 1640.66,1476.75 1663.99,1492.25 1687.5,1507.5C 1688.52,1508 1688.69,1508.67 1688,1509.5C 1655.23,1555.62 1617.4,1597.45 1574.5,1635C 1525.11,1677.73 1473.45,1717.4 1419.5,1754C 1417.96,1755.19 1416.29,1755.52 1414.5,1755C 977.333,1465.83 540.167,1176.67 103,887.5C 102.333,886.167 102.333,884.833 103,883.5C 130.978,834.815 157.311,785.149 182,734.5C 209.601,673.763 225.434,610.096 229.5,543.5 Z"/></g>
<g><path style="opacity:1" fill="#f9ad95" d="M 732.5,665.5 C 732.167,665.5 731.833,665.5 731.5,665.5C 671.833,665.5 612.167,665.5 552.5,665.5C 552.5,687.833 552.5,710.167 552.5,732.5C 551.503,710.006 551.169,687.339 551.5,664.5C 612.002,664.168 672.336,664.501 732.5,665.5 Z"/></g>
<g><path style="opacity:1" fill="#ee272a" d="M 731.5,665.5 C 731.832,727.336 731.499,789.002 730.5,850.5C 670.872,811.526 611.539,772.193 552.5,732.5C 552.5,710.167 552.5,687.833 552.5,665.5C 612.167,665.5 671.833,665.5 731.5,665.5 Z"/></g>
<g><path style="opacity:1" fill="#f26950" d="M 731.5,665.5 C 731.833,665.5 732.167,665.5 732.5,665.5C 732.833,727.504 732.5,789.504 731.5,851.5C 730.893,851.376 730.56,851.043 730.5,850.5C 731.499,789.002 731.832,727.336 731.5,665.5 Z"/></g>
<g><path style="opacity:1" fill="#ee272a" d="M 810.5,669.5 C 872.833,669.5 935.167,669.5 997.5,669.5C 997.667,788.834 997.5,908.167 997,1027.5C 935.253,986.376 873.419,945.376 811.5,904.5C 810.5,826.17 810.167,747.836 810.5,669.5 Z"/></g>
<g><path style="opacity:1" fill="#f8a188" d="M 1518.5,669.5 C 1457.17,669.5 1395.83,669.5 1334.5,669.5C 1334.5,863.167 1334.5,1056.83 1334.5,1250.5C 1333.5,1056.67 1333.17,862.667 1333.5,668.5C 1395.34,668.168 1457,668.501 1518.5,669.5 Z"/></g>
<g><path style="opacity:1" fill="#ee272a" d="M 1518.5,669.5 C 1518.67,903.834 1518.5,1138.17 1518,1372.5C 1456.89,1331.7 1395.72,1291.03 1334.5,1250.5C 1334.5,1056.83 1334.5,863.167 1334.5,669.5C 1395.83,669.5 1457.17,669.5 1518.5,669.5 Z"/></g>
<g><path style="opacity:1" fill="#ee272a" d="M 1253.5,1101.5 C 1252.83,1132.83 1252.17,1164.17 1251.5,1195.5C 1192.94,1156.97 1134.44,1118.3 1076,1079.5C 1075.47,944.166 1074.97,808.833 1074.5,673.5C 1134.5,673.5 1194.5,673.5 1254.5,673.5C 1253.54,816.162 1253.2,958.829 1253.5,1101.5 Z"/></g>
<g><path style="opacity:1" fill="#ee272a" d="M 1583.5,673.5 C 1587.83,673.5 1592.17,673.5 1596.5,673.5C 1611.98,722.133 1633.15,768.133 1660,811.5C 1684.2,850.054 1707.2,889.388 1729,929.5C 1771.07,1013.54 1788.41,1102.54 1781,1196.5C 1778.82,1253.78 1770.48,1310.11 1756,1365.5C 1743.52,1408.13 1725.85,1448.46 1703,1486.5C 1701.96,1488.59 1700.46,1490.25 1698.5,1491.5C 1660.2,1466.36 1622.03,1441.03 1584,1415.5C 1583.5,1168.17 1583.33,920.834 1583.5,673.5 Z"/></g>
<g><path style="opacity:1" fill="#f4775d" d="M 469.5,678.5 C 470.568,677.566 471.901,677.232 473.5,677.5C 473.649,678.552 473.483,679.552 473,680.5C 471.887,679.695 470.721,679.028 469.5,678.5 Z"/></g>
<g><path style="opacity:1" fill="#8683b2" d="M 424.5,748.5 C 423.505,759.654 423.172,770.988 423.5,782.5C 422.176,770.993 422.176,759.327 423.5,747.5C 424.107,747.624 424.44,747.957 424.5,748.5 Z"/></g>
<g><path style="opacity:1" fill="#fefefe" d="M 424.5,748.5 C 444.893,761.116 465.06,774.116 485,787.5C 485.333,858.833 485.667,930.167 486,1001.5C 491.064,1037.56 510.897,1061.06 545.5,1072C 569.034,1074.79 584.534,1064.96 592,1042.5C 592.439,1006.83 592.939,971.164 593.5,935.5C 594.167,912.167 594.833,888.833 595.5,865.5C 615.455,879.615 635.288,893.948 655,908.5C 655.667,961.5 655.667,1014.5 655,1067.5C 648.452,1107.71 625.285,1131.88 585.5,1140C 566.663,1141.93 548.663,1138.93 531.5,1131C 467.211,1102.61 431.044,1053.45 423,983.5C 423.324,916.504 423.491,849.504 423.5,782.5C 423.172,770.988 423.505,759.654 424.5,748.5 Z"/></g>
<g><path style="opacity:1" fill="#bab8d4" d="M 595.5,865.5 C 594.833,888.833 594.167,912.167 593.5,935.5C 593.167,911.824 593.5,888.157 594.5,864.5C 595.107,864.624 595.44,864.957 595.5,865.5 Z"/></g>
<g><path style="opacity:1" fill="#ee282a" d="M 92.5,904.5 C 130.866,929.106 169.033,954.106 207,979.5C 207.667,1188.83 207.667,1398.17 207,1607.5C 147.548,1545.61 99.2146,1475.95 62,1398.5C 38.6134,1347.62 24.6134,1294.29 20,1238.5C 14.4865,1120.55 38.6531,1009.22 92.5,904.5 Z"/></g>
<g><path style="opacity:1" fill="#fefefe" d="M 797.5,1006.5 C 813.581,1006.4 829.248,1008.9 844.5,1014C 894.914,1048.29 945.414,1082.46 996,1116.5C 996.269,1136.17 995.935,1155.84 995,1175.5C 943.081,1141.46 891.248,1107.29 839.5,1073C 810.712,1064.79 799.879,1075.29 807,1104.5C 810.364,1116.53 817.864,1124.69 829.5,1129C 870.894,1157.39 912.561,1185.39 954.5,1213C 968.552,1224.04 980.052,1237.21 989,1252.5C 1001.15,1275.89 1001.48,1299.56 990,1323.5C 976.047,1353.4 952.547,1365.9 919.5,1361C 906.953,1359.06 894.953,1355.39 883.5,1350C 833.33,1318.08 783.33,1285.92 733.5,1253.5C 732.334,1232.84 732.167,1212.17 733,1191.5C 785.404,1227.29 838.237,1262.45 891.5,1297C 917.197,1307.1 929.697,1298.6 929,1271.5C 926.769,1264.6 922.936,1258.77 917.5,1254C 910.455,1249.48 903.122,1245.48 895.5,1242C 853.185,1211.18 810.518,1180.84 767.5,1151C 743.138,1129.59 733.638,1102.75 739,1070.5C 741.566,1056.04 746.9,1042.7 755,1030.5C 766.031,1016.9 780.198,1008.9 797.5,1006.5 Z"/></g>
<g><path style="opacity:1" fill="#f7987e" d="M 294.5,1037.5 C 293.5,1255 293.167,1472.67 293.5,1690.5C 292.167,1472.67 292.167,1254.67 293.5,1036.5C 294.107,1036.62 294.44,1036.96 294.5,1037.5 Z"/></g>
<g><path style="opacity:1" fill="#ee272a" d="M 294.5,1037.5 C 354.118,1076.61 413.618,1115.94 473,1155.5C 473.667,1376.5 473.667,1597.5 473,1818.5C 409.67,1780.66 349.837,1737.99 293.5,1690.5C 293.167,1472.67 293.5,1255 294.5,1037.5 Z"/></g>
<g><path style="opacity:1" fill="#f79d84" d="M 1253.5,1101.5 C 1253.83,1133.17 1253.5,1164.84 1252.5,1196.5C 1251.89,1196.38 1251.56,1196.04 1251.5,1195.5C 1252.17,1164.17 1252.83,1132.83 1253.5,1101.5 Z"/></g>
<g><path style="opacity:1" fill="#ee282a" d="M 551.5,1208.5 C 611.785,1247.32 671.785,1286.65 731.5,1326.5C 732.667,1544.83 732.833,1763.17 732,1981.5C 673.609,1941.05 613.775,1902.71 552.5,1866.5C 551.5,1647.17 551.167,1427.83 551.5,1208.5 Z"/></g>
<g><path style="opacity:1" fill="#fefefe" d="M 1166.5,1454.5 C 1166.17,1434.99 1166.5,1415.66 1167.5,1396.5C 1201.48,1418.81 1235.48,1441.14 1269.5,1463.5C 1269.83,1462.33 1270.17,1461.17 1270.5,1460C 1269.7,1437.51 1269.2,1415.01 1269,1392.5C 1260.15,1355.98 1238.99,1329.15 1205.5,1312C 1174.67,1300.83 1152.17,1310 1138,1339.5C 1136.84,1343.12 1135.84,1346.79 1135,1350.5C 1133.61,1395.15 1133.11,1439.82 1133.5,1484.5C 1132.83,1496.83 1132.17,1509.17 1131.5,1521.5C 1114.19,1510.84 1096.86,1500.18 1079.5,1489.5C 1078.67,1429.83 1078.84,1370.17 1080,1310.5C 1085.93,1283.89 1101.43,1265.06 1126.5,1254C 1148.75,1245.75 1171.41,1244.42 1194.5,1250C 1241.38,1264.69 1278.88,1292.19 1307,1332.5C 1320.17,1354.02 1328.17,1377.35 1331,1402.5C 1331.67,1485.5 1331.67,1568.5 1331,1651.5C 1311.42,1640.63 1291.92,1629.63 1272.5,1618.5C 1271.29,1587.17 1270.29,1555.84 1269.5,1524.5C 1235.15,1501.14 1200.82,1477.81 1166.5,1454.5 Z"/></g>
<g><path style="opacity:1" fill="#ee272a" d="M 811.5,1379.5 C 872.886,1420.28 934.386,1460.95 996,1501.5C 995.87,1678.83 995.37,1856.16 994.5,2033.5C 968.274,2056.55 945.108,2082.22 925,2110.5C 917.333,2121.83 909.667,2133.17 902,2144.5C 875.601,2109.09 845.934,2076.42 813,2046.5C 812.717,1824.17 812.217,1601.83 811.5,1379.5 Z"/></g>
<g><path style="opacity:1" fill="#8380b1" d="M 1167.5,1396.5 C 1166.5,1415.66 1166.17,1434.99 1166.5,1454.5C 1165.17,1435 1165.17,1415.33 1166.5,1395.5C 1167.11,1395.62 1167.44,1395.96 1167.5,1396.5 Z"/></g>
<g><path style="opacity:1" fill="#aeaccc" d="M 1133.5,1484.5 C 1133.83,1497.18 1133.5,1509.85 1132.5,1522.5C 1131.89,1522.38 1131.56,1522.04 1131.5,1521.5C 1132.17,1509.17 1132.83,1496.83 1133.5,1484.5 Z"/></g>
<g><path style="opacity:1" fill="#fbc9b6" d="M 1077.5,1555.5 C 1076.5,1579.99 1076.17,1604.66 1076.5,1629.5C 1075.17,1604.66 1075.17,1579.66 1076.5,1554.5C 1077.11,1554.62 1077.44,1554.96 1077.5,1555.5 Z"/></g>
<g><path style="opacity:1" fill="#ee272a" d="M 1077.5,1555.5 C 1134.89,1593.61 1192.39,1631.61 1250,1669.5C 1250.67,1734.5 1250.67,1799.5 1250,1864.5C 1192.89,1900.64 1135.72,1936.64 1078.5,1972.5C 1077.83,1897.17 1077.17,1821.83 1076.5,1746.5C 1076.5,1707.5 1076.5,1668.5 1076.5,1629.5C 1076.17,1604.66 1076.5,1579.99 1077.5,1555.5 Z"/></g>
<g><path style="opacity:1" fill="#f6977d" d="M 1335.5,1726.5 C 1334.5,1754.33 1334.17,1782.33 1334.5,1810.5C 1333.17,1782.33 1333.17,1754 1334.5,1725.5C 1335.11,1725.62 1335.44,1725.96 1335.5,1726.5 Z"/></g>
<g><path style="opacity:1" fill="#ee2a2b" d="M 1335.5,1726.5 C 1356.81,1739.83 1377.81,1753.66 1398.5,1768C 1377.56,1782.78 1356.22,1796.95 1334.5,1810.5C 1334.17,1782.33 1334.5,1754.33 1335.5,1726.5 Z"/></g>
<g><path style="opacity:1" fill="#2e3a87" d="M 1468.5,1755.5 C 1494.78,1753.06 1515.61,1762.39 1531,1783.5C 1543.09,1806.46 1542.09,1828.8 1528,1850.5C 1506.2,1873.74 1480.36,1879.57 1450.5,1868C 1423.85,1852.74 1413.35,1829.91 1419,1799.5C 1426.93,1775.07 1443.43,1760.4 1468.5,1755.5 Z"/></g>
<g><path style="opacity:1" fill="#fcfcfd" d="M 1469.5,1768.5 C 1507.16,1768.32 1524.66,1786.99 1522,1824.5C 1513.38,1853.24 1494.22,1864.74 1464.5,1859C 1440.96,1848.43 1431.13,1830.26 1435,1804.5C 1439.58,1785.75 1451.08,1773.75 1469.5,1768.5 Z"/></g>
<g><path style="opacity:1" fill="#9693bd" d="M 1482.5,1781.5 C 1473.5,1781.5 1464.5,1781.5 1455.5,1781.5C 1455.5,1803.5 1455.5,1825.5 1455.5,1847.5C 1459.83,1847.5 1464.17,1847.5 1468.5,1847.5C 1464.03,1848.49 1459.36,1848.82 1454.5,1848.5C 1454.5,1825.83 1454.5,1803.17 1454.5,1780.5C 1464.01,1780.17 1473.35,1780.51 1482.5,1781.5 Z"/></g>
<g><path style="opacity:1" fill="#2e3a86" d="M 1482.5,1781.5 C 1503.58,1782.41 1510.41,1792.75 1503,1812.5C 1499.28,1816.28 1494.78,1818.28 1489.5,1818.5C 1494.36,1828.05 1499.69,1837.38 1505.5,1846.5C 1501.37,1847.48 1497.03,1847.82 1492.5,1847.5C 1487.2,1838.67 1482.03,1829.67 1477,1820.5C 1474.28,1819.56 1471.45,1819.22 1468.5,1819.5C 1468.5,1828.83 1468.5,1838.17 1468.5,1847.5C 1464.17,1847.5 1459.83,1847.5 1455.5,1847.5C 1455.5,1825.5 1455.5,1803.5 1455.5,1781.5C 1464.5,1781.5 1473.5,1781.5 1482.5,1781.5 Z"/></g>
<g><path style="opacity:1" fill="#fdfdfe" d="M 1468.5,1792.5 C 1474.51,1792.33 1480.51,1792.5 1486.5,1793C 1490.09,1793.75 1492.09,1795.92 1492.5,1799.5C 1492.37,1802.39 1491.37,1804.89 1489.5,1807C 1482.59,1808.38 1475.59,1808.88 1468.5,1808.5C 1468.5,1803.17 1468.5,1797.83 1468.5,1792.5 Z"/></g>
<g><path style="opacity:1" fill="#b9b6d3" d="M 1505.5,1846.5 C 1506.04,1846.56 1506.38,1846.89 1506.5,1847.5C 1501.68,1848.81 1497.02,1848.81 1492.5,1847.5C 1497.03,1847.82 1501.37,1847.48 1505.5,1846.5 Z"/></g>
<g><path style="opacity:1" fill="#f6896e" d="M 1076.5,1746.5 C 1077.17,1821.83 1077.83,1897.17 1078.5,1972.5C 1078.44,1973.04 1078.11,1973.38 1077.5,1973.5C 1076.5,1897.84 1076.17,1822.17 1076.5,1746.5 Z"/></g>
</svg>
