<svg width="1440" height="314" viewBox="0 0 1440 314" fill="none" xmlns="http://www.w3.org/2000/svg">
<path d="M0 45.295C53.33 32.382 106.67 19.467 160 25.243C213.33 31.02 266.67 55.487 320 57.326C373.33 59.166 426.67 38.377 480.001 25.243C533.334 12.108 586.667 6.629 639.999 13.212C693.332 19.795 746.668 38.439 800.001 45.295C853.333 52.15 906.666 47.215 959.999 37.275C1013.33 27.333 1066.67 12.386 1120 5.19C1173.33 -2.005 1226.67 -1.45001 1280 5.19C1333.33 11.83 1386.67 24.552 1440 37.275V314C1386.67 314 1333.33 314 1280 314C1226.67 314 1173.33 314 1120 314C1066.67 314 1013.33 314 959.999 314C906.666 314 853.333 314 800.001 314C746.668 314 693.332 314 639.999 314C586.667 314 533.334 314 480.001 314C426.67 314 373.33 314 320 314C266.67 314 213.33 314 160 314C106.67 314 53.33 314 0 314V45.295Z" fill="#CCAB56"/>
</svg>
