<svg width="1440" height="314" viewBox="0 0 1440 314" fill="none" xmlns="http://www.w3.org/2000/svg">
<path d="M1440 268.705C1386.67 281.618 1333.33 294.533 1280 288.757C1226.67 282.98 1173.33 258.513 1120 256.674C1066.67 254.834 1013.33 275.623 959.999 288.757C906.666 301.892 853.333 307.371 800.001 300.788C746.668 294.205 693.332 275.561 639.999 268.705C586.667 261.85 533.334 266.785 480.001 276.725C426.665 286.667 373.333 301.614 320 308.81C266.667 316.005 213.334 315.45 160.001 308.81C106.666 302.17 53.3329 289.448 -9.53674e-07 276.725V-3.73422e-06C53.3329 -3.73422e-06 106.666 -3.73422e-06 160.001 -3.73422e-06C213.334 -3.73422e-06 266.667 -3.73422e-06 320 -3.73422e-06C373.333 -3.73422e-06 426.665 -3.73422e-06 480.001 -3.73422e-06C533.334 -3.73422e-06 586.667 -3.73422e-06 639.999 -3.73422e-06C693.332 -3.73422e-06 746.668 -3.73422e-06 800.001 -3.73422e-06C853.333 -3.73422e-06 906.666 -3.73422e-06 959.999 -3.73422e-06C1013.33 -3.73422e-06 1066.67 -3.73422e-06 1120 -3.73422e-06C1173.33 -3.73422e-06 1226.67 -3.73422e-06 1280 -3.73422e-06C1333.33 -3.73422e-06 1386.67 -3.73422e-06 1440 -3.73422e-06V268.705Z" fill="#629BC5"/>
</svg>
